<svg viewBox="0 0 512 512" xmlns="http://www.w3.org/2000/svg" fill-rule="evenodd" clip-rule="evenodd" stroke-linejoin="round" stroke-miterlimit="2"><path d="M444.302 108.09L286.45 14.39c-18.84-11.184-42.063-11.184-60.903 0l-157.851 93.7c-18.835 11.184-30.443 31.85-30.443 54.217V349.71c0 22.362 11.608 43.038 30.449 54.222l157.85 93.684c9.42 5.595 19.926 8.384 30.449 8.384 10.517 0 21.023-2.789 30.443-8.384l157.851-93.684c18.84-11.184 30.455-31.86 30.455-54.222V162.307c0-22.368-11.615-43.033-30.45-54.217z" fill="#fefefe"/><path d="M231.07 488.019L73.22 394.335c-15.44-9.167-25.03-26.266-25.03-44.632V162.307c0-18.366 9.59-35.465 25.025-44.626l157.856-93.7c7.568-4.493 16.189-6.868 24.931-6.868 8.737 0 17.358 2.375 24.931 6.868l157.85 93.7c13.01 7.723 21.785 21.095 24.254 36.094-5.236-11.173-17.043-14.21-30.801-6.174L282.9 239.841c-18.62 10.886-32.35 23.101-32.361 45.552v184.011c-.011 13.444 5.418 22.153 13.758 24.678-2.74.474-5.501.805-8.296.805-8.742 0-17.363-2.376-24.931-6.868M444.3 108.085L286.452 14.39C277.031 8.795 266.514 6 256.002 6c-10.517 0-21.034 2.795-30.454 8.39L67.697 108.085c-18.835 11.184-30.443 31.854-30.443 54.222v187.396c0 22.363 11.608 43.039 30.449 54.223l157.85 93.69c9.426 5.589 19.932 8.383 30.449 8.383 10.517 0 21.023-2.794 30.443-8.384l157.857-93.69c18.84-11.183 30.449-31.86 30.449-54.222V162.307c0-22.368-11.609-43.038-30.45-54.222" fill="#3e474a"/><path d="M402.922 367.821l-39.307 23.526c-1.042.606-1.808 1.29-1.813 2.541v10.286c0 1.257.843 1.78 1.885 1.168l39.913-24.258c1.042-.607 1.202-1.77 1.207-3.021v-9.073c0-1.251-.843-1.775-1.885-1.169" fill="#47b353"/><path d="M319.22 281.242c1.274-.644 2.321.15 2.338 1.814l.132 13.598c5.694-2.265 10.638-2.871 15.12-1.835.97.259 1.4 1.582 1.003 3.153l-2.993 12.05c-.232.909-.744 1.83-1.362 2.403-.259.253-.523.452-.788.584-.402.204-.8.27-1.18.193-2.044-.463-6.906-1.527-14.557 2.348-8.026 4.062-10.831 11.035-10.776 16.211.066 6.18 3.235 8.053 14.183 8.24 14.585.243 20.885 6.615 21.04 21.305.148 14.425-7.552 29.914-19.332 39.406l.26 13.46c.016 1.621-1.037 3.479-2.31 4.124l-7.97 4.591c-1.28.645-2.327-.148-2.343-1.769l-.138-13.24c-6.83 2.839-13.747 3.522-18.168 1.747-.833-.325-1.19-1.554-.86-2.954l2.888-12.171c.232-.96.739-1.918 1.428-2.53a3.01 3.01 0 01.75-.546c.457-.231.904-.28 1.284-.138 4.762 1.604 10.853.855 16.713-2.11 7.441-3.765 12.418-11.356 12.341-18.896-.071-6.84-3.776-9.685-12.782-9.751-11.466.033-22.154-2.227-22.33-19.105-.143-13.896 7.083-28.355 18.52-37.5l-.143-13.587c-.016-1.67 1.004-3.505 2.316-4.167l7.717-4.928z" fill="#fefefe"/></svg>