<svg width="219.2px" height="359.59999999999997px" xmlns="http://www.w3.org/2000/svg" viewBox="140.4 -104.79999999999998 219.2 359.59999999999997" style="background: rgba(0, 0, 0, 0);" preserveAspectRatio="xMidYMid"><defs><filter id="editing-extrusion" x="-100%" y="-100%" width="300%" height="300%"><feFlood result="color1" flood-color="#383838"></feFlood><feConvolveMatrix order="6,6" divisor="1" kernelMatrix="1 0 0 0 0 0 0 1 0 0 0 0 0 0 1 0 0 0 0 0 0 1 0 0 0 0 0 0 1 0 0 0 0 0 0 1" in="SourceAlpha" result="extrude"></feConvolveMatrix><feComposite in="color1" in2="extrude" result="comp-extrude" operator="in"></feComposite><feOffset dx="3" dy="3" in="comp-extrude" result="offset-extrude"></feOffset><feMerge><feMergeNode in="offset-extrude"></feMergeNode><feMergeNode in="SourceGraphic"></feMergeNode></feMerge></filter></defs><g filter="url(#editing-extrusion)"><g transform="translate(194.65637302398682, 145.4600067138672)"><path d="M117.19-93.85L117.19-93.85L117.19-93.85Q119.53-93.85 119.53-92.77L119.53-92.77L119.53-92.77Q119.53-91.89 117.33-90.87L117.33-90.87L117.33-90.87Q115.14-89.84 112.11-87.26L112.11-87.26L112.11-87.26Q109.08-84.67 105.37-80.27L105.37-80.27L105.37-80.27Q101.66-75.88 97.07-69.34L97.07-69.34L86.43-53.52L86.43-53.52Q51.95 0.29 9.67 0.29L9.67 0.29L9.67 0.29Q0.10 0.29-6.93-3.86L-6.93-3.86L-6.93-3.86Q-13.96-8.01-13.96-13.77L-13.96-13.77L-13.96-13.77Q-13.96-19.92-8.01-21.48L-8.01-21.48L-8.01-21.48Q-6.35-21.97-4.79-21.97L-4.79-21.97L-4.79-21.97Q-3.22-21.97-1.56-20.95L-1.56-20.95L-1.56-20.95Q0.10-19.92 0.10-17.72L0.10-17.72L0.10-17.72Q0.10-15.53-1.56-14.11L-1.56-14.11L-1.56-14.11Q-3.22-12.70-5.91-12.70L-5.91-12.70L-5.91-12.70Q-8.59-12.70-10.06-13.57L-10.06-13.57L-10.06-12.99L-10.06-12.99Q-10.06-5.66 1.95-3.13L1.95-3.13L1.95-3.13Q5.76-2.25 11.08-2.25L11.08-2.25L11.08-2.25Q16.41-2.25 22.46-4.39L22.46-4.39L22.46-4.39Q28.52-6.54 35.16-11.52L35.16-11.52L35.16-11.52Q48.54-21.78 66.11-45.12L66.11-45.12L66.11-45.12Q72.66-53.42 76.37-57.71L76.37-57.71L76.37-57.71Q85.84-68.55 88.87-71.88L88.87-71.88L88.87-71.88Q60.64-51.66 43.55-51.66L43.55-51.66L43.55-51.66Q36.33-51.66 33.79-53.52L33.79-53.52L33.79-53.52Q29.20-56.74 29.20-62.99L29.20-62.99L29.20-62.99Q29.20-64.75 29.69-68.16L29.69-68.16L29.69-68.16Q25.98-67.87 21.09-67.87L21.09-67.87L21.09-67.87Q10.55-67.87 2.15-72.56L2.15-72.56L2.15-72.56Q-0.49-73.83-0.49-74.71L-0.49-74.71L-0.49-74.71Q-0.49-75.59 0.20-75.59L0.20-75.59L0.20-75.59Q0.88-75.59 2.59-74.61L2.59-74.61L2.59-74.61Q4.30-73.63 6.69-72.71L6.69-72.71L6.69-72.71Q9.08-71.78 11.72-71.09L11.72-71.09L11.72-71.09Q16.50-69.82 21.68-69.82L21.68-69.82L21.68-69.82Q26.86-69.82 30.08-70.12L30.08-70.12L30.08-70.12Q33.69-85.35 49.80-102.34L49.80-102.34L49.80-102.34Q64.84-118.36 84.77-129.30L84.77-129.30L84.77-129.30Q105.08-140.63 120.41-140.63L120.41-140.63L120.41-140.63Q126.86-140.63 129.54-138.57L129.54-138.57L129.54-138.57Q132.23-136.52 132.23-131.49L132.23-131.49L132.23-131.49Q132.23-126.46 127.78-119.87L127.78-119.87L127.78-119.87Q123.34-113.28 115.23-106.35L115.23-106.35L115.23-106.35Q98.54-91.89 71.29-79.30L71.29-79.30L71.29-79.30Q55.86-72.46 40.33-69.53L40.33-69.53L40.33-69.53Q37.21-63.48 37.21-60.99L37.21-60.99L37.21-60.99Q37.21-58.50 37.60-57.57L37.60-57.57L37.60-57.57Q37.99-56.64 38.87-55.86L38.87-55.86L38.87-55.86Q40.92-54.20 45.17-54.20L45.17-54.20L45.17-54.20Q49.41-54.20 54.79-55.81L54.79-55.81L54.79-55.81Q60.16-57.42 66.99-61.04L66.99-61.04L66.99-61.04Q81.35-68.55 102.25-84.77L102.25-84.77L102.25-84.77Q113.48-93.85 117.19-93.85ZM129.88-133.11L129.88-133.11L129.88-133.11Q129.88-138.38 122.27-138.38L122.27-138.38L122.27-138.38Q105.27-138.38 78.03-114.65L78.03-114.65L78.03-114.65Q60.64-99.41 48.14-82.13L48.14-82.13L48.14-82.13Q44.34-76.86 41.70-72.17L41.70-72.17L41.70-72.17Q55.18-75.39 70.07-83.06L70.07-83.06L70.07-83.06Q84.96-90.72 95.51-98.10L95.51-98.10L95.51-98.10Q106.05-105.47 113.67-112.30L113.67-112.30L113.67-112.30Q129.88-126.66 129.88-133.11Z" fill="#ffffff"></path></g></g><style>text {
  font-size: 64px;
  font-family: Arial Black;
  dominant-baseline: central;
  text-anchor: middle;
}</style></svg>